<svg width="22" height="22" viewBox="0 0 22 22" fill="none" xmlns="http://www.w3.org/2000/svg">
<path d="M2.619 0C1.1733 0 0 1.173 0 2.619V19.381C0 20.827 1.1733 22 2.619 22H19.381C20.8267 22 22 20.827 22 19.381V2.619C22 1.173 20.8267 0 19.381 0H2.619Z" fill="white"/>
<path d="M5 17.731C6.0477 15.454 8.3404 13.874 11 13.874C13.6596 13.874 15.9523 15.454 17 17.731" stroke="#313843" stroke-width="2" stroke-linecap="round"/>
<path d="M14.0497 7.80901C14.0497 9.51101 12.6793 10.881 11.0001 10.881C9.32084 10.881 7.95044 9.51101 7.95044 7.80901C7.95044 6.10801 9.32084 4.73801 11.0001 4.73801C12.6793 4.73801 14.0497 6.10801 14.0497 7.80901Z" fill="#313843" stroke="#313843" stroke-width="2"/>
</svg>
