<svg width="22" height="22" viewBox="0 0 22 22" fill="none" xmlns="http://www.w3.org/2000/svg">
<path d="M2.619 0C1.1733 0 0 1.17299 0 2.61899V19.381C0 20.827 1.1733 22 2.619 22H19.381C20.8267 22 22 20.827 22 19.381V2.61899C22 1.17299 20.8267 0 19.381 0H2.619ZM10.1775 3.14301H11.7387L12.1939 5.616C12.7701 5.741 13.2627 5.98699 13.7551 6.27499L15.8923 4.87701L17.0085 5.987L15.6099 8.134C15.898 8.627 16.1442 9.12499 16.2647 9.70099L18.7733 10.194H18.8571V11.765L16.3486 12.257C16.2229 12.834 15.9758 13.331 15.6877 13.824L17.0862 15.971L15.9762 17.081L13.839 15.683C13.3466 15.971 12.8489 16.217 12.2727 16.342L11.7806 18.857H10.2194L9.7273 16.342C9.1511 16.217 8.6534 15.971 8.161 15.683L6.0238 17.081L4.9138 15.971L6.3123 13.824C6.0242 13.331 5.7771 12.834 5.6514 12.257L3.1429 11.765V10.194L5.6105 9.74301C5.7362 9.16601 5.9823 8.66899 6.2704 8.17599L4.8718 6.02899L5.9819 4.91901L8.119 6.31699C8.6167 6.02899 9.1092 5.78299 9.6854 5.65799L10.1775 3.14301ZM11 8.38101C9.5595 8.38101 8.381 9.56 8.381 11C8.381 12.44 9.5595 13.619 11 13.619C12.4405 13.619 13.619 12.44 13.619 11C13.619 9.56 12.4405 8.38101 11 8.38101Z" fill="white"/>
</svg>
