<svg width="22" height="22" viewBox="0 0 22 22" fill="none" xmlns="http://www.w3.org/2000/svg">
<path d="M2.619 0C1.1733 0 0 1.173 0 2.619V19.381C0 20.827 1.1733 22 2.619 22H19.381C20.8267 22 22 20.827 22 19.381V2.619C22 1.173 20.8267 0 19.381 0H2.619Z" fill="white"/>
<path d="M17.88 4C17.2612 4 16.76 4.498 16.76 5.114C16.76 5.202 16.7712 5.28999 16.79 5.37199L14.45 7.53C14.37 7.512 14.285 7.5 14.2 7.5C14.0375 7.5 13.88 7.537 13.74 7.599L12.11 6.625C12.0687 6.047 11.5912 5.591 11 5.591C10.3812 5.591 9.88 6.089 9.88 6.705C9.88 6.728 9.8888 6.751 9.89 6.774L8.11 8.186C8.0125 8.159 7.9075 8.136 7.8 8.136C7.2488 8.136 6.7938 8.529 6.7 9.05099L4.78 9.936C4.5962 9.803 4.365 9.72701 4.12 9.72701C3.5012 9.72701 3 10.226 3 10.841C3 11.456 3.5012 11.955 4.12 11.955C4.6312 11.955 5.0562 11.615 5.19 11.149L7.24 10.214C7.4037 10.309 7.5975 10.364 7.8 10.364C8.4187 10.364 8.92 9.865 8.92 9.25C8.92 9.226 8.9112 9.20399 8.91 9.17999L10.69 7.76801C10.7875 7.79601 10.8925 7.81799 11 7.81799C11.16 7.81799 11.3125 7.77799 11.45 7.71899L13.09 8.69299C13.1312 9.27099 13.6087 9.72701 14.2 9.72701C14.8187 9.72701 15.32 9.229 15.32 8.614C15.32 8.564 15.3162 8.513 15.31 8.464L17.76 6.217C17.7987 6.221 17.84 6.22701 17.88 6.22701C18.4987 6.22701 19 5.729 19 5.114C19 4.498 18.4987 4 17.88 4ZM17.88 12.273C17.2612 12.273 16.76 12.771 16.76 13.386C16.76 13.477 16.7688 13.57 16.79 13.655L14.45 15.803C14.37 15.785 14.285 15.773 14.2 15.773C14.1325 15.773 14.0638 15.781 14 15.793L12.1 13.903C12.1112 13.84 12.12 13.772 12.12 13.705C12.12 13.089 11.6187 12.591 11 12.591C10.3812 12.591 9.88 13.089 9.88 13.705C9.88 13.728 9.8888 13.751 9.89 13.774L8.12 15.186C8.0188 15.156 7.91 15.136 7.8 15.136C7.48 15.136 7.1937 15.271 6.99 15.484L5.16 15.196C4.995 14.786 4.5912 14.5 4.12 14.5C3.5012 14.5 3 14.998 3 15.614C3 16.229 3.5012 16.727 4.12 16.727C4.4062 16.727 4.6625 16.614 4.86 16.439L6.8 16.737C6.9812 17.109 7.3575 17.364 7.8 17.364C8.4187 17.364 8.92 16.865 8.92 16.25C8.92 16.226 8.9112 16.204 8.91 16.18L10.69 14.768C10.7875 14.796 10.8925 14.818 11 14.818C11.0675 14.818 11.1362 14.809 11.2 14.798L13.1 16.688C13.0887 16.751 13.08 16.819 13.08 16.886C13.08 17.502 13.5812 18 14.2 18C14.8187 18 15.32 17.502 15.32 16.886C15.32 16.837 15.3162 16.786 15.31 16.737L17.77 14.49C17.8062 14.494 17.8425 14.5 17.88 14.5C18.4987 14.5 19 14.002 19 13.386C19 12.771 18.4987 12.273 17.88 12.273Z" fill="#22B654"/>
</svg>
